<svg xmlns="http://www.w3.org/2000/svg" viewBox="0 0 289 150">
  <polygon points="220.11 150 0 150 0 0 289 0 220.11 150" style="fill: #fff;" />
  <path
    d="M39.3,101h2l2.54,8.09h0L46.43,101h1.92v10.17H47.13v-8.77h0l-2.87,8.77H43.3l-2.75-8.77h0v8.77H39.3Z"
    style="fill: #181716;"
  />
  <path
    d="M52,100.65v1.46H50.64v-1.46Zm-1.28,3.06h1.22v7.43H50.69Z"
    style="fill: #181716;"
  />
  <path
    d="M57.29,111.05a3.48,3.48,0,0,1-1,.19c-1.12,0-1.71-.45-1.71-1.76V104.7H53.38v-1h1.17v-1.52l1.22-.36v1.88h1.52v1H55.77v4.39c0,.84.21,1.16.77,1.16a1.77,1.77,0,0,0,.75-.19Z"
    style="fill: #181716;"
  />
  <path
    d="M67.58,111.46a2.85,2.85,0,0,1-3.16,2.91,7,7,0,0,1-2.16-.45l.06-1.24a4.07,4.07,0,0,0,2,.65c1.49,0,2.07-.89,2.07-2.18V110h0a2.17,2.17,0,0,1-1.94,1.25c-1.52,0-2.55-1.25-2.55-3.82s1-3.81,2.68-3.81a2.12,2.12,0,0,1,1.81,1.18h0l0-1.08h1.18c0,.44-.06.9-.06,1.35Zm-2.84-1.21c1.12,0,1.62-1,1.62-2.83s-.5-2.82-1.62-2.82-1.62,1-1.62,2.82S63.62,110.25,64.74,110.25Z"
    style="fill: #181716;"
  />
  <path
    d="M74.68,109.54c0,.54,0,1.08.06,1.6H73.57l0-1.11h0a1.9,1.9,0,0,1-1.87,1.21c-1.3,0-2.17-.74-2.17-2.37v-5.16h1.22v4.79c0,1.18.44,1.69,1.22,1.69,1,0,1.57-.67,1.57-2v-4.47h1.21Z"
    style="fill: #181716;"
  />
  <path
    d="M80,111.05a3.48,3.48,0,0,1-1,.19c-1.12,0-1.71-.45-1.71-1.76V104.7H76v-1h1.18v-1.52l1.21-.36v1.88H80v1H78.42v4.39c0,.84.22,1.16.77,1.16a1.81,1.81,0,0,0,.76-.19Z"
    style="fill: #181716;"
  />
  <path
    d="M82.12,107.79c0,1.72.67,2.52,2,2.52a3.2,3.2,0,0,0,1.7-.61l.06,1.1a4.91,4.91,0,0,1-2.07.44c-2,0-3-1.48-3-3.82s1-3.81,2.86-3.81c1.67,0,2.59,1.34,2.59,3.52v.66Zm3-.93c0-1.55-.48-2.32-1.45-2.32-.79,0-1.48.58-1.51,2.32Z"
    style="fill: #181716;"
  />
  <path
    d="M87.87,105.31c0-.54,0-1.08-.05-1.6H89l0,1.11h0a1.94,1.94,0,0,1,3.57,0,1.94,1.94,0,0,1,1.8-1.16c1.27,0,2.14.74,2.14,2.37v5.16H95.35V106c0-1-.4-1.38-1.13-1.38-.9,0-1.39.55-1.39,1.89v4.59H91.61V106c0-1-.4-1.38-1.13-1.38-.9,0-1.39.55-1.39,1.89v4.59H87.87Z"
    style="fill: #181716;"
  />
  <path
    d="M109.15,110.72a7.87,7.87,0,0,1-2.5.52c-3.21,0-4.56-2.45-4.56-5.2,0-3.18,1.85-5.17,4.48-5.17a5.53,5.53,0,0,1,2.38.45v1.28a5.43,5.43,0,0,0-2.36-.62c-1.65,0-3.16,1.32-3.16,3.8s1,4.35,3.24,4.35a3.14,3.14,0,0,0,1.27-.27v-3.21h-1.7v-1.1h2.91Z"
    style="fill: #181716;"
  />
  <path
    d="M112.3,107.79c0,1.72.67,2.52,2,2.52a3.2,3.2,0,0,0,1.7-.61l.06,1.1a5,5,0,0,1-2.07.44c-2,0-3-1.48-3-3.82s1-3.81,2.86-3.81c1.67,0,2.59,1.34,2.59,3.52v.66Zm3-.93c0-1.55-.48-2.32-1.45-2.32-.79,0-1.48.58-1.51,2.32Z"
    style="fill: #181716;"
  />
  <path
    d="M118.58,104.7H117.4v-1h1.18v-1.66c0-1.21.55-2,1.84-2a4,4,0,0,1,1,.11v1a1.19,1.19,0,0,0-.69-.17c-.68,0-.89.38-.89,1.12v1.56h1.34v1h-1.34v6.44h-1.21Z"
    style="fill: #181716;"
  />
  <path
    d="M127.53,109.54c0,.54,0,1.08.06,1.6h-1.17l0-1.11h0a1.9,1.9,0,0,1-1.87,1.21c-1.29,0-2.16-.74-2.16-2.37v-5.16h1.21v4.79c0,1.18.44,1.69,1.22,1.69,1,0,1.57-.67,1.57-2v-4.47h1.21Zm-4.34-8.82h1.15v1.46h-1.15Zm2.31,0h1.16v1.46H125.5Z"
    style="fill: #181716;"
  />
  <path
    d="M129.53,100.21h1.22v4.52h0a2,2,0,0,1,1.81-1.12c1.29,0,2.16.74,2.16,2.37v5.16h-1.21v-4.79c0-1.18-.44-1.69-1.22-1.69-1,0-1.57.67-1.57,2v4.47h-1.22Z"
    style="fill: #181716;"
  />
  <path d="M136.87,100.21h1.22v10.93h-1.22Z" style="fill: #181716;" />
  <path
    d="M149.13,109.54c0,.54.05,1.08.06,1.6H148L148,110h0a1.89,1.89,0,0,1-1.87,1.21c-1.29,0-2.16-.74-2.16-2.37v-5.16h1.22v4.79c0,1.18.44,1.69,1.22,1.69,1,0,1.56-.67,1.56-2v-4.47h1.22Z"
    style="fill: #181716;"
  />
  <path
    d="M151.13,105.31c0-.54,0-1.08-.06-1.6h1.18l0,1.11h0a1.9,1.9,0,0,1,1.87-1.21c1.29,0,2.16.74,2.16,2.37v5.16h-1.22v-4.79c0-1.18-.43-1.69-1.21-1.69-1,0-1.57.67-1.57,2v4.47h-1.22Z"
    style="fill: #181716;"
  />
  <path
    d="M161.61,111.05a3.42,3.42,0,0,1-1,.19c-1.11,0-1.71-.45-1.71-1.76V104.7H157.7v-1h1.17v-1.52l1.22-.36v1.88h1.52v1h-1.52v4.39c0,.84.22,1.16.77,1.16a1.77,1.77,0,0,0,.75-.19Z"
    style="fill: #181716;"
  />
  <path
    d="M163.79,107.79c0,1.72.66,2.52,2,2.52a3.2,3.2,0,0,0,1.7-.61l.06,1.1a5,5,0,0,1-2.08.44c-1.95,0-3-1.48-3-3.82s1-3.81,2.86-3.81c1.66,0,2.59,1.34,2.59,3.52v.66Zm3-.93c0-1.55-.47-2.32-1.44-2.32-.79,0-1.48.58-1.51,2.32Z"
    style="fill: #181716;"
  />
  <path
    d="M169.54,105.31c0-.54,0-1.08-.06-1.6h1.18l0,1.16h0a2,2,0,0,1,2.1-1.26v1.21a2.24,2.24,0,0,0-.46,0c-.94,0-1.61.82-1.61,2.44v3.93h-1.22Z"
    style="fill: #181716;"
  />
  <path
    d="M181.05,111.14h-1.39l-1.55-6.28h0l-1.42,6.28h-1.39l-2-7.43h1.28l1.4,6.21h0l1.41-6.21h1.45l1.46,6.21h0l1.39-6.21H183Z"
    style="fill: #181716;"
  />
  <path
    d="M185.14,107.79c0,1.72.67,2.52,2,2.52a3.2,3.2,0,0,0,1.7-.61l.06,1.1a5,5,0,0,1-2.07.44c-2,0-3-1.48-3-3.82s1-3.81,2.86-3.81c1.67,0,2.59,1.34,2.59,3.52v.66Zm3-.93c0-1.55-.48-2.32-1.45-2.32-.79,0-1.48.58-1.51,2.32Z"
    style="fill: #181716;"
  />
  <path
    d="M196.21,111.46c0,2.05-1.53,2.91-3.16,2.91a7,7,0,0,1-2.16-.45l.06-1.24a4.07,4.07,0,0,0,2,.65c1.49,0,2.07-.89,2.07-2.18V110h0a2.18,2.18,0,0,1-1.95,1.25c-1.52,0-2.55-1.25-2.55-3.82s1-3.81,2.68-3.81a2.15,2.15,0,0,1,1.82,1.18h0l0-1.08h1.17c0,.44-.06.9-.06,1.35Zm-2.84-1.21c1.12,0,1.63-1,1.63-2.83s-.51-2.82-1.63-2.82-1.62,1-1.62,2.82S192.26,110.25,193.37,110.25Z"
    style="fill: #181716;"
  />
  <path
    d="M197.78,109.7a3.4,3.4,0,0,0,1.74.55c.93,0,1.4-.48,1.4-1s-.26-.86-.94-1.16l-.81-.37c-1.06-.48-1.45-1-1.45-1.91a2.18,2.18,0,0,1,2.38-2.15,4.42,4.42,0,0,1,1.56.26l0,1a3.49,3.49,0,0,0-1.45-.32c-.8,0-1.22.44-1.22,1s.43.93,1.25,1.25l.43.18a2,2,0,0,1,1.46,1.89,2.12,2.12,0,0,1-2.37,2.3,4.34,4.34,0,0,1-2-.44Z"
    style="fill: #181716;"
  />
  <path d="M203.32,109.51h1.39v1.63h-1.39Z" style="fill: #181716;" />
  <polygon
    points="223.46 39.4 199.19 92.35 171.61 92.35 156.09 53.12 175.87 53.12 185.68 77.93 185.68 77.93 203.11 39.4 223.46 39.4"
    style="fill: #ed7200;"
  />
  <path
    d="M88.2,39.31h18.42v9.75h.23c4-7.62,12.13-11,21.34-11,15.95,0,22.36,10.16,22.36,21.13v33H130.33V66.64c0-10-3.82-13.31-9.33-13.31-8.31,0-12.58,5.18-12.58,16.56V92.25H88.2Z"
    style="fill: #00254c;"
  />
  <path
    d="M80.29,39a41.72,41.72,0,0,0-5.21-.38c-8.76,0-14,3.74-17.45,10.45h-.22V39.3H39v53H59.21V69.89c0-10.36,5.42-16,14.86-16a28.46,28.46,0,0,1,6.22.46Z"
    style="fill: #00254c;"
  />
</svg>
